HIERARCHY
ROOT Hips
{
  OFFSET 0.000 58.647 0.000
  CHANNELS 6 Xposition Yposition Zposition Zrotation Xrotation Yrotation
  JOINT LeftUpLeg
  {
    OFFSET 7.227 0.487 3.253
    CHANNELS 6 Xposition Yposition Zposition Zrotation Xrotation Yrotation
    JOINT LeftLeg
    {
      OFFSET 0.000 -27.629 0.000
      CHANNELS 6 Xposition Yposition Zposition Zrotation Xrotation Yrotation
      JOINT LeftFoot
      {
        OFFSET 0.000 -31.504 0.000
        CHANNELS 6 Xposition Yposition Zposition Zrotation Xrotation Yrotation
        End Site
        {
          OFFSET 0.000 0.000 8.519
        }
      }
    }
  }
  JOINT RightUpLeg
  {
    OFFSET -7.227 0.487 3.253
    CHANNELS 6 Xposition Yposition Zposition Zrotation Xrotation Yrotation
    JOINT RightLeg
    {
      OFFSET 0.000 -27.629 0.000
      CHANNELS 6 Xposition Yposition Zposition Zrotation Xrotation Yrotation
      JOINT RightFoot
      {
        OFFSET 0.000 -31.504 0.000
        CHANNELS 6 Xposition Yposition Zposition Zrotation Xrotation Yrotation
        End Site
        {
          OFFSET 0.000 0.000 8.519
        }
      }
    }
  }
  JOINT Spine
  {
    OFFSET 0.000 25.861 0.000
    CHANNELS 6 Xposition Yposition Zposition Zrotation Xrotation Yrotation
    JOINT Spine1
    {
      OFFSET 0.000 19.210 0.000
      CHANNELS 6 Xposition Yposition Zposition Zrotation Xrotation Yrotation
      JOINT LeftShoulder
      {
        OFFSET 1.790 -0.220 0.196
        CHANNELS 6 Xposition Yposition Zposition Zrotation Xrotation Yrotation
        JOINT LeftArm
        {
          OFFSET 16.559 0.000 0.000
          CHANNELS 6 Xposition Yposition Zposition Zrotation Xrotation Yrotation
          JOINT LeftForeArm
          {
            OFFSET 22.245 0.000 0.000
            CHANNELS 6 Xposition Yposition Zposition Zrotation Xrotation Yrotation
            JOINT LeftHand
            {
              OFFSET 19.159 0.000 0.000
              CHANNELS 6 Xposition Yposition Zposition Zrotation Xrotation Yrotation
              JOINT LeftHandThumb1
              {
                OFFSET 4.877 -1.044 3.608
                CHANNELS 6 Xposition Yposition Zposition Zrotation Xrotation Yrotation
                JOINT LeftHandThumb2
                {
                  OFFSET 2.665 0.000 0.000
                  CHANNELS 6 Xposition Yposition Zposition Zrotation Xrotation Yrotation
                  JOINT LeftHandThumb3
                  {
                    OFFSET 2.543 0.000 0.000
                    CHANNELS 6 Xposition Yposition Zposition Zrotation Xrotation Yrotation
                    End Site
                    {
                      OFFSET 2.667 0.000 0.000
                    }
                  }
                }
              }
              JOINT LeftHandIndex1
              {
                OFFSET 9.232 -0.301 2.144
                CHANNELS 6 Xposition Yposition Zposition Zrotation Xrotation Yrotation
                JOINT LeftHandIndex2
                {
                  OFFSET 4.225 0.000 -0.000
                  CHANNELS 6 Xposition Yposition Zposition Zrotation Xrotation Yrotation
                  JOINT LeftHandIndex3
                  {
                    OFFSET 2.654 -0.000 0.000
                    CHANNELS 6 Xposition Yposition Zposition Zrotation Xrotation Yrotation
                    End Site
                    {
                      OFFSET 1.958 0.000 0.000
                    }
                  }
                }
              }
              JOINT LeftHandMiddle1
              {
                OFFSET 8.920 0.000 -0.000
                CHANNELS 6 Xposition Yposition Zposition Zrotation Xrotation Yrotation
                JOINT LeftHandMiddle2
                {
                  OFFSET 4.863 0.000 0.000
                  CHANNELS 6 Xposition Yposition Zposition Zrotation Xrotation Yrotation
                  JOINT LeftHandMiddle3
                  {
                    OFFSET 2.765 0.000 0.000
                    CHANNELS 6 Xposition Yposition Zposition Zrotation Xrotation Yrotation
                    End Site
                    {
                      OFFSET 2.006 0.000 0.000
                    }
                  }
                }
              }
              JOINT LeftHandRing1
              {
                OFFSET 8.689 -0.126 -2.087
                CHANNELS 6 Xposition Yposition Zposition Zrotation Xrotation Yrotation
                JOINT LeftHandRing2
                {
                  OFFSET 4.538 0.000 0.000
                  CHANNELS 6 Xposition Yposition Zposition Zrotation Xrotation Yrotation
                  JOINT LeftHandRing3
                  {
                    OFFSET 2.305 -0.000 0.000
                    CHANNELS 6 Xposition Yposition Zposition Zrotation Xrotation Yrotation
                    End Site
                    {
                      OFFSET 1.923 0.000 0.000
                    }
                  }
                }
              }
              JOINT LeftHandPinky1
              {
                OFFSET 8.391 -0.817 -3.758
                CHANNELS 6 Xposition Yposition Zposition Zrotation Xrotation Yrotation
                JOINT LeftHandPinky2
                {
                  OFFSET 3.044 0.000 0.000
                  CHANNELS 6 Xposition Yposition Zposition Zrotation Xrotation Yrotation
                  JOINT LeftHandPinky3
                  {
                    OFFSET 1.975 0.000 -0.000
                    CHANNELS 6 Xposition Yposition Zposition Zrotation Xrotation Yrotation
                    End Site
                    {
                      OFFSET 1.667 0.000 0.000
                    }
                  }
                }
              }
            }
          }
        }
      }
      JOINT RightShoulder
      {
        OFFSET -1.790 -0.220 0.196
        CHANNELS 6 Xposition Yposition Zposition Zrotation Xrotation Yrotation
        JOINT RightArm
        {
          OFFSET -16.559 0.000 0.000
          CHANNELS 6 Xposition Yposition Zposition Zrotation Xrotation Yrotation
          JOINT RightForeArm
          {
            OFFSET -22.245 0.000 0.000
            CHANNELS 6 Xposition Yposition Zposition Zrotation Xrotation Yrotation
            JOINT RightHand
            {
              OFFSET -19.159 0.000 0.000
              CHANNELS 6 Xposition Yposition Zposition Zrotation Xrotation Yrotation
              JOINT RightHandThumb1
              {
                OFFSET -4.877 -1.044 3.608
                CHANNELS 6 Xposition Yposition Zposition Zrotation Xrotation Yrotation
                JOINT RightHandThumb2
                {
                  OFFSET -2.665 -0.000 -0.000
                  CHANNELS 6 Xposition Yposition Zposition Zrotation Xrotation Yrotation
                  JOINT RightHandThumb3
                  {
                    OFFSET -2.543 -0.000 0.000
                    CHANNELS 6 Xposition Yposition Zposition Zrotation Xrotation Yrotation
                    End Site
                    {
                      OFFSET -2.667 0.000 -0.000
                    }
                  }
                }
              }
              JOINT RightHandIndex1
              {
                OFFSET -9.232 -0.301 2.144
                CHANNELS 6 Xposition Yposition Zposition Zrotation Xrotation Yrotation
                JOINT RightHandIndex2
                {
                  OFFSET -4.225 0.000 0.000
                  CHANNELS 6 Xposition Yposition Zposition Zrotation Xrotation Yrotation
                  JOINT RightHandIndex3
                  {
                    OFFSET -2.654 -0.000 0.000
                    CHANNELS 6 Xposition Yposition Zposition Zrotation Xrotation Yrotation
                    End Site
                    {
                      OFFSET -1.958 -0.000 0.000
                    }
                  }
                }
              }
              JOINT RightHandMiddle1
              {
                OFFSET -8.920 -0.000 0.000
                CHANNELS 6 Xposition Yposition Zposition Zrotation Xrotation Yrotation
                JOINT RightHandMiddle2
                {
                  OFFSET -4.863 0.000 0.000
                  CHANNELS 6 Xposition Yposition Zposition Zrotation Xrotation Yrotation
                  JOINT RightHandMiddle3
                  {
                    OFFSET -2.765 0.000 0.000
                    CHANNELS 6 Xposition Yposition Zposition Zrotation Xrotation Yrotation
                    End Site
                    {
                      OFFSET -2.006 0.000 0.000
                    }
                  }
                }
              }
              JOINT RightHandRing1
              {
                OFFSET -8.689 -0.126 -2.087
                CHANNELS 6 Xposition Yposition Zposition Zrotation Xrotation Yrotation
                JOINT RightHandRing2
                {
                  OFFSET -4.538 -0.000 0.000
                  CHANNELS 6 Xposition Yposition Zposition Zrotation Xrotation Yrotation
                  JOINT RightHandRing3
                  {
                    OFFSET -2.305 -0.000 -0.000
                    CHANNELS 6 Xposition Yposition Zposition Zrotation Xrotation Yrotation
                    End Site
                    {
                      OFFSET -1.923 -0.000 0.000
                    }
                  }
                }
              }
              JOINT RightHandPinky1
              {
                OFFSET -8.391 -0.817 -3.758
                CHANNELS 6 Xposition Yposition Zposition Zrotation Xrotation Yrotation
                JOINT RightHandPinky2
                {
                  OFFSET -3.044 -0.000 -0.000
                  CHANNELS 6 Xposition Yposition Zposition Zrotation Xrotation Yrotation
                  JOINT RightHandPinky3
                  {
                    OFFSET -1.975 -0.000 0.000
                    CHANNELS 6 Xposition Yposition Zposition Zrotation Xrotation Yrotation
                    End Site
                    {
                      OFFSET -1.667 0.000 0.000
                    }
                  }
                }
              }
            }
          }
        }
      }
      JOINT Neck
      {
        OFFSET 0.000 0.636 0.000
        CHANNELS 6 Xposition Yposition Zposition Zrotation Xrotation Yrotation
        JOINT Head
        {
          OFFSET 0.000 5.780 0.000
          CHANNELS 6 Xposition Yposition Zposition Zrotation Xrotation Yrotation
          End Site
          {
            OFFSET 0.000 10.760 0.000
          }
        }
      }
    }
  }
}
MOTION
Frames:	4
Frame Time:	0.033333
48.86846 -40.80723 -408.95627 -7.30716 23.50606 -23.82561 8.45721 2.36293 2.96852 44.40649 -37.26318 21.74336 0.22351 -27.77789 -0.38736 -11.57312 32.04392 -10.26944 -0.00748 -30.58472 -0.03946 10.84051 -7.06352 -14.18992 -6.87584 0.98177 2.97728 -12.62692 -66.28822 -23.06721 0.15995 -25.95543 0.05599 3.33832 52.51965 10.34026 -0.01262 -30.80543 -0.03866 -0.97008 21.53022 2.55728 -0.02499 25.74084 0.02190 0.08110 1.65705 1.40594 -0.02558 19.62905 0.00594 -1.51335 2.89256 1.99896 1.64298 0.23178 0.09962 6.98304 -0.42223 -3.44693 14.76129 -0.01569 -0.01130 -22.32607 -5.47572 0.29260 23.46873 -0.50805 -0.32586 95.43228 -44.24906 -54.72728 21.50107 -0.28565 -0.12608 56.51814 4.46080 28.52730 4.87701 -1.04399 3.60801 -24.66667 4.20765 -9.07765 2.66501 0.00002 0.00000 0.00001 -0.00000 9.99904 2.54300 0.00002 0.00000 0.00001 0.00000 15.00079 9.23200 -0.30098 2.14400 -20.00106 -0.00000 0.00000 4.22502 0.00000 -0.00002 -25.00114 -0.00000 0.00000 2.65400 -0.00002 0.00005 -29.90663 2.49795 -4.33215 8.92000 0.00000 -0.00002 -20.00106 -0.00000 0.00000 4.86298 0.00001 0.00002 -25.00114 -0.00000 0.00000 2.76501 0.00002 0.00000 -29.90663 2.49795 -4.33215 8.68900 -0.12600 -2.08700 -20.00106 -0.00000 0.00000 4.53801 0.00000 0.00000 -25.00114 -0.00000 0.00000 2.30500 -0.00001 0.00000 -29.90663 2.49795 -4.33215 8.39100 -0.81701 -3.75803 -20.00106 -0.00000 0.00000 3.04399 0.00000 0.00002 -25.00114 -0.00000 0.00000 1.97498 0.00001 -0.00002 -29.90663 2.49795 -4.33215 -1.93751 -0.58237 0.08699 16.76402 1.04946 3.03162 -18.28565 0.08510 -0.19858 -9.18225 0.47147 25.01823 -21.24095 2.94019 0.59135 -82.91783 0.49920 -12.10746 -10.61445 -5.78104 -0.68786 -8.95909 7.34952 3.54967 -4.87702 -1.04399 3.60804 24.66652 4.20953 9.07773 -2.66500 -0.00005 -0.00001 0.00000 0.00000 -9.99881 -2.54298 -0.00002 0.00001 0.00000 -0.00000 -15.00097 -9.23202 -0.30100 2.14400 20.00128 -0.00000 0.00001 -4.22500 0.00002 0.00000 25.00086 -0.00001 0.00000 -2.65403 -0.00000 0.00000 29.90635 2.49829 4.33198 -8.92000 -0.00001 0.00000 20.00128 -0.00000 0.00001 -4.86300 0.00000 0.00000 25.00086 -0.00001 0.00000 -2.76501 0.00001 0.00000 29.90635 2.49829 4.33198 -8.68902 -0.12599 -2.08697 20.00128 -0.00000 0.00001 -4.53800 -0.00002 0.00000 25.00086 -0.00001 0.00000 -2.30501 -0.00000 -0.00002 29.90635 2.49829 4.33198 -8.39102 -0.81699 -3.75798 20.00128 -0.00000 0.00001 -3.04400 -0.00002 -0.00002 25.00086 -0.00001 0.00000 -1.97501 -0.00001 0.00000 29.90635 2.49829 4.33198 -0.00184 0.66157 0.00072 -0.00050 0.00363 -0.00073 0.01449 6.04495 0.00380 17.67448 -13.37239 -16.44506 
48.78894 -40.87865 -408.99554 -7.52562 24.14448 -23.72369 8.43450 2.41484 2.94412 43.03819 -34.97588 19.48466 0.20752 -27.40473 -0.29075 -11.18714 27.24670 -8.58414 0.01264 -30.65094 -0.01048 7.03961 6.20518 -7.85473 -6.88147 1.00157 2.94921 -11.93748 -63.86359 -24.01641 0.17243 -25.69709 0.07299 3.38643 49.12255 11.18812 -0.02209 -30.80970 -0.02913 -1.76107 22.34299 4.43777 -0.01789 25.74128 0.01585 0.14874 1.76818 1.97819 -0.01612 19.64935 -0.00089 -1.31470 2.98197 2.42505 1.63773 0.21215 0.11411 6.20994 -0.41238 -3.81932 14.72986 -0.01376 -0.01184 -25.57766 -6.68275 -0.58166 23.58657 -0.44897 -0.23419 98.50668 -44.44075 -53.20884 22.42941 -0.23321 -0.23763 69.26044 8.05289 26.75294 4.87701 -1.04399 3.60801 -24.66663 4.20768 -9.07771 2.66501 0.00002 0.00000 0.00001 -0.00000 9.99907 2.54300 0.00002 0.00000 0.00001 0.00000 15.00076 9.23200 -0.30098 2.14400 -20.00102 -0.00000 0.00000 4.22502 0.00000 -0.00002 -25.00110 -0.00000 0.00000 2.65400 -0.00002 0.00005 -29.90658 2.49793 -4.33218 8.92000 0.00000 -0.00002 -20.00102 -0.00000 0.00000 4.86298 0.00001 0.00002 -25.00110 -0.00000 0.00000 2.76501 0.00002 0.00000 -29.90658 2.49793 -4.33218 8.68900 -0.12600 -2.08700 -20.00102 -0.00000 0.00000 4.53801 0.00000 0.00000 -25.00110 -0.00000 0.00000 2.30500 -0.00001 0.00000 -29.90658 2.49793 -4.33218 8.39100 -0.81701 -3.75803 -20.00102 -0.00000 0.00000 3.04399 0.00000 0.00002 -25.00110 -0.00000 0.00000 1.97498 0.00001 -0.00002 -29.90658 2.49793 -4.33218 -2.03483 -0.48417 0.11431 13.90983 0.84484 3.24345 -18.93377 0.17203 -0.08271 -8.81257 -0.19809 19.80462 -22.71449 2.43747 0.05531 -69.67906 -7.11756 -18.46209 -13.16051 -5.27607 -1.22115 10.88383 34.01674 18.33388 -4.87702 -1.04399 3.60804 24.66650 4.20951 9.07775 -2.66500 -0.00005 -0.00001 0.00000 0.00000 -9.99883 -2.54298 -0.00002 0.00001 0.00000 -0.00000 -15.00095 -9.23202 -0.30100 2.14400 20.00125 -0.00000 0.00001 -4.22500 0.00002 0.00000 25.00084 -0.00001 0.00000 -2.65403 -0.00000 0.00000 29.90633 2.49828 4.33200 -8.92000 -0.00001 0.00000 20.00125 -0.00000 0.00001 -4.86300 0.00000 0.00000 25.00084 -0.00001 0.00000 -2.76501 0.00001 0.00000 29.90633 2.49828 4.33200 -8.68902 -0.12599 -2.08697 20.00125 -0.00000 0.00001 -4.53800 -0.00002 0.00000 25.00084 -0.00001 0.00000 -2.30501 -0.00000 -0.00002 29.90633 2.49828 4.33200 -8.39102 -0.81699 -3.75798 20.00125 -0.00000 0.00001 -3.04400 -0.00002 -0.00002 25.00084 -0.00001 0.00000 -1.97501 -0.00001 0.00000 29.90633 2.49828 4.33200 -0.00184 0.66137 0.00073 -0.00050 0.00363 -0.00073 0.01543 6.06064 0.01102 15.27164 -16.04027 -19.44247 
48.73469 -40.96406 -409.04330 -7.65568 24.68656 -23.09930 8.36537 2.45834 2.90567 44.06594 -34.83983 19.24139 0.13431 -26.63672 -0.18475 -13.74339 26.18185 -5.77882 0.01182 -30.67439 0.01094 3.51072 10.42486 0.26365 -6.90109 1.02315 2.90810 -12.48952 -61.40945 -25.79242 0.15664 -25.58643 0.04862 4.01951 46.22955 11.64281 -0.00620 -30.96465 -0.13137 -2.05794 21.82132 5.49295 -0.01003 25.72015 0.00875 0.22512 1.83042 2.33614 -0.00784 19.64439 -0.00625 -1.13340 3.08695 2.67433 1.62903 0.19988 0.13324 5.86963 -0.44788 -4.43272 14.68504 -0.01143 -0.01219 -26.71191 -6.73687 -3.02803 22.68363 -0.29083 -0.25553 100.64935 -41.90588 -50.87070 20.16850 -0.08972 0.05980 56.51621 3.51738 22.55594 4.87701 -1.04399 3.60801 -24.66659 4.20772 -9.07776 2.66501 0.00002 0.00000 0.00001 -0.00000 9.99911 2.54300 0.00002 0.00000 0.00001 0.00000 15.00073 9.23200 -0.30098 2.14400 -20.00097 -0.00000 0.00000 4.22502 0.00000 -0.00002 -25.00105 -0.00000 0.00000 2.65400 -0.00002 0.00005 -29.90654 2.49791 -4.33220 8.92000 0.00000 -0.00002 -20.00097 -0.00000 0.00000 4.86298 0.00001 0.00002 -25.00105 -0.00000 0.00000 2.76501 0.00002 0.00000 -29.90654 2.49791 -4.33220 8.68900 -0.12600 -2.08700 -20.00097 -0.00000 0.00000 4.53801 0.00000 0.00000 -25.00105 -0.00000 0.00000 2.30500 -0.00001 0.00000 -29.90654 2.49791 -4.33220 8.39100 -0.81701 -3.75803 -20.00097 -0.00000 0.00000 3.04399 0.00000 0.00002 -25.00105 -0.00000 0.00000 1.97498 0.00001 -0.00002 -29.90654 2.49791 -4.33220 -2.10520 -0.40107 0.14184 11.48176 0.69098 3.61419 -19.40668 0.19042 0.00032 -7.01278 -1.73899 14.53277 -23.71930 1.81872 -0.16866 -66.40922 -16.49873 -20.86880 -15.22640 -4.16630 -1.52752 24.32025 41.03090 30.23206 -4.87702 -1.04399 3.60804 24.66648 4.20949 9.07778 -2.66500 -0.00005 -0.00001 0.00000 0.00000 -9.99886 -2.54298 -0.00002 0.00001 0.00000 -0.00000 -15.00093 -9.23202 -0.30100 2.14400 20.00123 -0.00000 0.00001 -4.22500 0.00002 0.00000 25.00083 -0.00001 0.00000 -2.65403 -0.00000 0.00000 29.90631 2.49826 4.33201 -8.92000 -0.00001 0.00000 20.00123 -0.00000 0.00001 -4.86300 0.00000 0.00000 25.00083 -0.00001 0.00000 -2.76501 0.00001 0.00000 29.90631 2.49826 4.33201 -8.68902 -0.12599 -2.08697 20.00123 -0.00000 0.00001 -4.53800 -0.00002 0.00000 25.00083 -0.00001 0.00000 -2.30501 -0.00000 -0.00002 29.90631 2.49826 4.33201 -8.39102 -0.81699 -3.75798 20.00123 -0.00000 0.00001 -3.04400 -0.00002 -0.00002 25.00083 -0.00001 0.00000 -1.97501 -0.00001 0.00000 29.90631 2.49826 4.33201 -0.00185 0.66114 0.00075 -0.00050 0.00363 -0.00073 0.01605 6.05311 0.01349 13.17309 -18.25831 -22.12231 
48.62505 -41.12091 -409.23013 -7.73035 25.36617 -21.51010 8.17999 2.44740 2.85678 45.28885 -37.02763 18.96597 0.08785 -26.30669 -0.13851 -15.31385 26.31933 -2.99200 0.03324 -30.74319 0.01488 -0.60893 18.47087 5.34895 -6.90624 1.07169 2.85027 -12.58204 -57.65538 -27.37549 0.10545 -26.01787 -0.13646 5.49099 41.92396 11.20267 0.11400 -32.01483 -0.88274 -0.43642 15.09104 3.38720 0.00366 25.67821 -0.00082 0.36958 1.83655 2.35465 0.00326 19.58273 -0.01346 -0.94247 3.22212 2.61975 1.62635 0.19001 0.15953 5.71879 -0.51406 -5.28185 14.71387 -0.00746 -0.01232 -30.00590 -7.72027 -3.33656 23.29712 -0.41491 -0.22628 103.94485 -42.70840 -49.57407 21.98200 -0.11575 -0.03679 85.29517 16.14552 13.43021 4.87701 -1.04399 3.60801 -24.66655 4.20776 -9.07782 2.66501 0.00002 0.00000 0.00001 -0.00000 9.99915 2.54300 0.00002 0.00000 0.00001 0.00000 15.00069 9.23200 -0.30098 2.14400 -20.00093 -0.00000 0.00000 4.22502 0.00000 -0.00002 -25.00101 -0.00000 0.00000 2.65400 -0.00002 0.00005 -29.90650 2.49790 -4.33223 8.92000 0.00000 -0.00002 -20.00093 -0.00000 0.00000 4.86298 0.00001 0.00002 -25.00101 -0.00000 0.00000 2.76501 0.00002 0.00000 -29.90650 2.49790 -4.33223 8.68900 -0.12600 -2.08700 -20.00093 -0.00000 0.00000 4.53801 0.00000 0.00000 -25.00101 -0.00000 0.00000 2.30500 -0.00001 0.00000 -29.90650 2.49790 -4.33223 8.39100 -0.81701 -3.75803 -20.00093 -0.00000 0.00000 3.04399 0.00000 0.00002 -25.00101 -0.00000 0.00000 1.97498 0.00001 -0.00002 -29.90650 2.49790 -4.33223 -2.14597 -0.32327 0.17459 9.18360 0.55445 4.22674 -19.65431 0.19855 0.09058 -6.83397 -2.80945 7.88232 -24.28775 1.38170 -0.26538 -55.04018 -20.52428 -17.86407 -16.59584 -3.39988 -1.19592 18.46525 33.55476 50.68741 -4.87702 -1.04399 3.60804 24.66647 4.20947 9.07780 -2.66500 -0.00005 -0.00001 0.00000 0.00000 -9.99888 -2.54298 -0.00002 0.00001 0.00000 -0.00000 -15.00091 -9.23202 -0.30100 2.14400 20.00120 -0.00000 0.00001 -4.22500 0.00002 0.00000 25.00081 -0.00001 0.00000 -2.65403 -0.00000 0.00000 29.90629 2.49824 4.33203 -8.92000 -0.00001 0.00000 20.00120 -0.00000 0.00001 -4.86300 0.00000 0.00000 25.00081 -0.00001 0.00000 -2.76501 0.00001 0.00000 29.90629 2.49824 4.33203 -8.68902 -0.12599 -2.08697 20.00120 -0.00000 0.00001 -4.53800 -0.00002 0.00000 25.00081 -0.00001 0.00000 -2.30501 -0.00000 -0.00002 29.90629 2.49824 4.33203 -8.39102 -0.81699 -3.75798 20.00120 -0.00000 0.00001 -3.04400 -0.00002 -0.00002 25.00081 -0.00001 0.00000 -1.97501 -0.00001 0.00000 29.90629 2.49824 4.33203 -0.00186 0.66089 0.00076 -0.00050 0.00363 -0.00073 0.01329 6.01416 0.01499 10.75614 -20.52265 -24.93697 
